<svg width="193" height="70" fill="none" xmlns="http://www.w3.org/2000/svg"><g clip-path="url(#clip0)"><path d="M35.106 69.668c19.196 0 34.758-15.562 34.758-34.759C69.864 15.713 54.302.151 35.106.151 15.909.15.347 15.713.347 34.909c0 19.197 15.562 34.76 34.759 34.76z" fill="url(#paint0_linear)"/><path d="M2.143 46.496c.497.497 2.775 3.062 8.81 2.262 3.289-.437 6.321-2.836 6.381-2.88l20.231-16.973c.12-.106.422-.196.422-.196.438 0 .65 0 .65.211v17.711L59.801 28.89l.181-.06a.74.74 0 01.649.377v15.675a.78.78 0 00.784.784h6.774l1.509-5.884h-2.55a.612.612 0 01-.618-.618V24.71c0-.15-.016-.317-.046-.467-.015-.046-.015-.076-.03-.121a5.441 5.441 0 00-5.039-3.364c-.196 0-.784.15-1.222.301a2.15 2.15 0 00-.648.377l-14.83 12.431-.181.136V25.12a5.441 5.441 0 00-5.34-4.36c-.182 0-.664.06-1.193.331-.724.363-1.448.996-2.066 1.51l-22.523 18.87C7.015 46.149 2.444 41.125.694 40.039c.015 1.976 1.494 5.295 1.449 6.457z" fill="#fff" stroke="#fff" stroke-miterlimit="10"/></g><path d="M86.87 39.415H74.552c.355-2.053 1.901-3.396 3.802-3.396h5.728c1.825 0 2.864.963 2.864 2.61 0 .254-.026.507-.076.786zm1.546 1.52l.355-2.027c.05-.253.076-.507.076-.76 0-2.003-1.47-3.65-4.664-3.65h-5.272c-3.447 0-5.728 2.332-6.133 4.613l-.583 3.295c-.076.43-.127.81-.127 1.19 0 2.307 1.521 3.473 4.664 3.473h6.159c3.446 0 4.815-2.18 5.144-4.004h-1.824c-.254 1.419-1.318 2.483-3.346 2.483h-5.93c-1.724 0-2.966-.633-2.966-2.483 0-.28.026-.583.076-.913l.228-1.216h14.143zm6.198-6.386h-1.825l-2.205 12.52h1.825l1.419-8.06c.279-1.571 1.977-2.94 3.979-2.94h3.244c2.661 0 3.118 1.622 3.118 2.738 0 .33-.051.608-.077.81h1.825c.076-.456.127-.861.127-1.241 0-1.673-.735-3.827-4.537-3.827h-3.548c-2.61 0-3.523 1.419-3.65 1.596l.305-1.596zm14.235 7.806l-.254 1.52c-.05.254-.076.457-.076.685 0 1.698 1.318 2.509 3.701 2.509h7.096c1.521 0 2.433-1.014 2.433-1.014l-.101 1.014h1.723l1.445-8.11c.076-.431.101-.811.101-1.192 0-2.027-1.165-3.218-4.029-3.218h-5.5c-4.284 0-4.892 2.103-5.145 3.599h1.875c.178-1.14.507-2.079 3.447-2.079h4.841c1.901 0 2.687.887 2.687 2.053 0 .456-.254 1.521-.355 2.281 0 0-.076-.988-2.155-.988h-7.299c-2.737 0-4.131 1.217-4.435 2.94zm4.815-1.42h6.184c1.572 0 2.434.558 2.434 1.75 0 1.9-1.217 2.863-3.245 2.863h-6.184c-2.179 0-2.458-.76-2.458-1.444 0-.254.127-.887.203-1.344.202-1.14.785-1.824 3.066-1.824zm13.508 6.134h1.824l3.092-17.59h-1.824l-3.092 17.59zm8.166-1.774l2.484-14.041h11.887c2.712 0 3.675.659 3.675 2.661 0 .558-.076 1.191-.203 1.952l-.836 4.663c-.608 3.447-1.394 4.765-5.094 4.765h-11.913zm.964-15.815l-3.092 17.589h13.584c4.867 0 6.59-2.028 7.376-6.539l.836-4.663c.152-.938.254-1.75.254-2.459 0-3.016-1.597-3.928-5.374-3.928h-13.584zm35.77 9.935h-12.318c.355-2.053 1.901-3.396 3.802-3.396h5.728c1.825 0 2.864.963 2.864 2.61 0 .254-.025.507-.076.786zm1.546 1.52l.355-2.027a3.92 3.92 0 00.076-.76c0-2.003-1.47-3.65-4.664-3.65h-5.271c-3.447 0-5.728 2.332-6.134 4.613l-.583 3.295c-.076.43-.127.81-.127 1.19 0 2.307 1.521 3.473 4.664 3.473h6.159c3.447 0 4.815-2.18 5.145-4.004h-1.825c-.254 1.419-1.318 2.483-3.346 2.483h-5.93c-1.724 0-2.966-.633-2.966-2.483 0-.28.026-.583.076-.913l.228-1.216h14.143zm16.741-6.386l-7.553 10.543h-.38l-3.903-10.543h-1.926l4.689 12.52h1.951l9.15-12.52h-2.028z" fill="#000"/><defs><linearGradient id="paint0_linear" x1="14.176" y1="7.15" x2="56.024" y2="62.684" gradientUnits="userSpaceOnUse"><stop stop-color="#CD57AF"/><stop offset="1" stop-color="#4A2AB1"/></linearGradient><clipPath id="clip0"><path fill="#fff" d="M0 0h70v70H0z"/></clipPath></defs></svg>