<svg width="193" height="70" viewBox="0 0 193 70" fill="none" xmlns="http://www.w3.org/2000/svg">
<g clip-path="url(#clip0)">
<path d="M35.1058 69.6681C54.3024 69.6681 69.8644 54.1061 69.8644 34.9095C69.8644 15.7128 54.3024 0.150879 35.1058 0.150879C15.9091 0.150879 0.347145 15.7128 0.347145 34.9095C0.347145 54.1061 15.9091 69.6681 35.1058 69.6681Z" fill="url(#paint0_linear)"/>
<path d="M2.14257 46.4956C2.64041 46.9935 4.91843 49.5581 10.9529 48.7585C14.2417 48.321 17.274 45.9223 17.3344 45.8771L37.565 28.9051C37.6857 28.7995 37.9874 28.709 37.9874 28.709C38.4249 28.709 38.6361 28.709 38.6361 28.9202V29.0861V45.7111V46.6314L59.802 28.89L59.9831 28.8297C60.2546 28.8297 60.5111 28.9805 60.6318 29.2068V29.3275V38.9676V39.7823V44.8814C60.6318 45.3189 60.9788 45.6659 61.4163 45.6659H68.19L69.6986 39.7823H67.149C66.802 39.7823 66.5305 39.5107 66.5305 39.1637V24.7111C66.5305 24.5603 66.5154 24.3943 66.4852 24.2435C66.4702 24.1982 66.4702 24.168 66.4551 24.1228C65.6404 22.1465 63.6943 20.7585 61.4163 20.7585C61.2201 20.7585 60.6318 20.9094 60.1943 21.0603C59.9529 21.1508 59.7417 21.2715 59.5456 21.4374L44.7158 33.8685L44.5348 34.0042V25.2391V25.1185C44.037 22.6292 41.8344 20.7585 39.1943 20.7585C39.0133 20.7585 38.5305 20.8189 38.0025 21.0904C37.2783 21.4525 36.5542 22.0861 35.9357 22.5991L13.412 41.4719C7.01541 46.1486 2.44429 41.1249 0.69429 40.0387C0.709376 42.015 2.18782 45.334 2.14257 46.4956Z" fill="white" stroke="white" stroke-miterlimit="10"/>
</g>
<path d="M86.8697 39.4149H74.5521C74.9069 37.362 76.453 36.0187 78.3538 36.0187H84.0817C85.9066 36.0187 86.9457 36.9818 86.9457 38.6292C86.9457 38.8827 86.9204 39.1361 86.8697 39.4149ZM88.4157 40.9356L88.7705 38.908C88.8212 38.6546 88.8466 38.4011 88.8466 38.1477C88.8466 36.1454 87.3766 34.498 84.1831 34.498H78.9114C75.4645 34.498 73.1835 36.8297 72.778 39.1108L72.195 42.4056C72.119 42.8365 72.0683 43.2166 72.0683 43.5968C72.0683 45.9032 73.589 47.069 76.7317 47.069H82.8905C86.3374 47.069 87.7061 44.8894 88.0355 43.0646H86.2107C85.9573 44.4839 84.8928 45.5484 82.8652 45.5484H76.9345C75.2111 45.5484 73.9692 44.9147 73.9692 43.0646C73.9692 42.7858 73.9945 42.4816 74.0452 42.1522L74.2733 40.9356H88.4157Z" fill="black"/>
<path d="M94.6135 34.5487H92.7887L90.5837 47.069H92.4085L93.8278 39.0094C94.1066 37.438 95.8047 36.0694 97.807 36.0694H101.051C103.712 36.0694 104.169 37.6915 104.169 38.8066C104.169 39.1361 104.118 39.4149 104.092 39.6177H105.917C105.993 39.1615 106.044 38.7559 106.044 38.3758C106.044 36.703 105.309 34.5487 101.507 34.5487H97.959C95.3485 34.5487 94.4361 35.968 94.3094 36.1454L94.6135 34.5487Z" fill="black"/>
<path d="M108.849 42.3549L108.595 43.8756C108.545 44.129 108.519 44.3318 108.519 44.5599C108.519 46.258 109.837 47.069 112.22 47.069H119.316C120.837 47.069 121.749 46.0553 121.749 46.0553L121.648 47.069H123.371L124.816 38.9587C124.892 38.5278 124.917 38.1477 124.917 37.7675C124.917 35.7399 123.752 34.5487 120.888 34.5487H115.388C111.104 34.5487 110.496 36.6523 110.243 38.1477H112.118C112.296 37.0072 112.625 36.0694 115.565 36.0694H120.406C122.307 36.0694 123.093 36.9565 123.093 38.1223C123.093 38.5785 122.839 39.643 122.738 40.4034C122.738 40.4034 122.662 39.4149 120.583 39.4149H113.284C110.547 39.4149 109.153 40.6315 108.849 42.3549ZM113.664 40.9356H119.848C121.42 40.9356 122.282 41.4932 122.282 42.6844C122.282 44.5853 121.065 45.5484 119.037 45.5484H112.853C110.674 45.5484 110.395 44.788 110.395 44.1037C110.395 43.8503 110.522 43.2166 110.598 42.7604C110.8 41.6199 111.383 40.9356 113.664 40.9356Z" fill="black"/>
<path d="M127.172 47.069H128.996L132.088 29.4797H130.264L127.172 47.069Z" fill="black"/>
<path d="M135.338 45.2949L137.822 31.2539H149.709C152.421 31.2539 153.384 31.9128 153.384 33.9151C153.384 34.4727 153.308 35.1063 153.181 35.8666L152.345 40.5301C151.737 43.977 150.951 45.2949 147.251 45.2949H135.338ZM136.302 29.4797L133.21 47.069H146.794C151.661 47.069 153.384 45.0415 154.17 40.5301L155.006 35.8666C155.158 34.9289 155.26 34.1178 155.26 33.4082C155.26 30.3921 153.663 29.4797 149.886 29.4797H136.302Z" fill="black"/>
<path d="M172.072 39.4149H159.754C160.109 37.362 161.655 36.0187 163.556 36.0187H169.284C171.109 36.0187 172.148 36.9818 172.148 38.6292C172.148 38.8827 172.123 39.1361 172.072 39.4149ZM173.618 40.9356L173.973 38.908C174.023 38.6546 174.049 38.4011 174.049 38.1477C174.049 36.1454 172.579 34.498 169.385 34.498H164.114C160.667 34.498 158.386 36.8297 157.98 39.1108L157.397 42.4056C157.321 42.8365 157.27 43.2166 157.27 43.5968C157.27 45.9032 158.791 47.069 161.934 47.069H168.093C171.54 47.069 172.908 44.8894 173.238 43.0646H171.413C171.159 44.4839 170.095 45.5484 168.067 45.5484H162.137C160.413 45.5484 159.171 44.9147 159.171 43.0646C159.171 42.7858 159.197 42.4816 159.247 42.1522L159.475 40.9356H173.618Z" fill="black"/>
<path d="M190.359 34.5487L182.806 45.0922H182.426L178.523 34.5487H176.597L181.286 47.069H183.237L192.387 34.5487H190.359Z" fill="black"/>
<defs>
<linearGradient id="paint0_linear" x1="14.1758" y1="7.14996" x2="56.0238" y2="62.684" gradientUnits="userSpaceOnUse">
<stop stop-color="#CD57AF"/>
<stop offset="1" stop-color="#4A2AB1"/>
</linearGradient>
<clipPath id="clip0">
<rect width="70" height="70" fill="white"/>
</clipPath>
</defs>
</svg>
